# xmcd CD database file
#
# Track frame offsets:
#	183
#	14020
#	26783
#	39568
#	53730
#	65055
#	79973
#	94013
#	108718
#	123543
#	136990
#	148985
#	163485
#	176723
#	191833
#	205568
#	220808
#
# Disc length: 3119 seconds
#
# Revision: 0
# Processed by: cddbd v1.5.1PL0 Copyright (c) Steve Scherf et al.
# Submitted via: CDex 1.51
#
DISCID=0d0c2d11
DTITLE=Bennie Moten - Dizionario Enciclopedico del Jazz - Volume 62
DYEAR=1992
DGENRE=Jazz
TTITLE0=That Certain Motion
TTITLE1=It Won't Be Wrong
TTITLE2=Rumba Negro (Spanish Stomp)
TTITLE3=The Jones Law Blues
TTITLE4=Band Box Shuffle
TTITLE5=Small Black
TTITLE6=Every Day Blues (Yo Yo Blues)
TTITLE7=Boot It
TTITLE8=Mary Lee
TTITLE9=New Vine Street Blues
TTITLE10=Sweetheart Of Yesterday
TTITLE11=I Wish I Could Be Blue
TTITLE12=Oh! Eddie
TTITLE13=That Too, Do
TTITLE14=Mack's Rhythm
TTITLE15=You Made Me Happy
TTITLE16=Here Comes Marjorie
EXTD=YEAR: 1992
EXTT0=
EXTT1=
EXTT2=
EXTT3=
EXTT4=
EXTT5=
EXTT6=
EXTT7=
EXTT8=
EXTT9=
EXTT10=
EXTT11=
EXTT12=
EXTT13=
EXTT14=
EXTT15=
EXTT16=
PLAYORDER=
